<mxfile host="app.diagrams.net" modified="2024-03-15T20:40:23.063Z" agent="Mozilla/5.0 (Windows NT 10.0; Win64; x64) AppleWebKit/537.36 (KHTML, like Gecko) Chrome/122.0.0.0 Safari/537.36" etag="Nri-FGQ6X64FebdWWS0S" version="24.0.2" type="github">
  <diagram id="prtHgNgQTEPvFCAcTncT" name="Page-1">
    <mxGraphModel dx="1358" dy="572" grid="0" gridSize="10" guides="0" tooltips="1" connect="1" arrows="1" fold="1" page="0" pageScale="1" pageWidth="827" pageHeight="1169" math="0" shadow="0">
      <root>
        <mxCell id="0" />
        <mxCell id="1" parent="0" />
        <mxCell id="dNxyNK7c78bLwvsdeMH5-19" value="Cadastro/Login" style="swimlane;html=1;childLayout=stackLayout;resizeParent=1;resizeParentMax=0;horizontal=0;startSize=20;horizontalStack=0;" parent="1" vertex="1">
          <mxGeometry x="40" y="40" width="1080" height="240" as="geometry" />
        </mxCell>
        <mxCell id="dNxyNK7c78bLwvsdeMH5-20" value="Cliente" style="swimlane;html=1;startSize=20;horizontal=0;" parent="dNxyNK7c78bLwvsdeMH5-19" vertex="1">
          <mxGeometry x="20" width="1060" height="120" as="geometry" />
        </mxCell>
        <mxCell id="dNxyNK7c78bLwvsdeMH5-25" value="" style="edgeStyle=orthogonalEdgeStyle;rounded=0;orthogonalLoop=1;jettySize=auto;html=1;" parent="dNxyNK7c78bLwvsdeMH5-20" source="dNxyNK7c78bLwvsdeMH5-23" target="dNxyNK7c78bLwvsdeMH5-24" edge="1">
          <mxGeometry relative="1" as="geometry" />
        </mxCell>
        <mxCell id="dNxyNK7c78bLwvsdeMH5-23" value="" style="ellipse;whiteSpace=wrap;html=1;fillColor=#d5e8d4;strokeColor=#82b366;" parent="dNxyNK7c78bLwvsdeMH5-20" vertex="1">
          <mxGeometry x="60" y="40" width="40" height="40" as="geometry" />
        </mxCell>
        <mxCell id="ytv9i6IObVo-lCA8z86A-72" style="edgeStyle=orthogonalEdgeStyle;rounded=0;orthogonalLoop=1;jettySize=auto;html=1;exitX=1;exitY=0.5;exitDx=0;exitDy=0;entryX=0;entryY=0.5;entryDx=0;entryDy=0;" parent="dNxyNK7c78bLwvsdeMH5-20" source="dNxyNK7c78bLwvsdeMH5-24" target="ytv9i6IObVo-lCA8z86A-5" edge="1">
          <mxGeometry relative="1" as="geometry" />
        </mxCell>
        <mxCell id="dNxyNK7c78bLwvsdeMH5-24" value="&lt;font style=&quot;font-size: 10px;&quot;&gt;Seleciona&lt;/font&gt;&lt;div style=&quot;font-size: 10px;&quot;&gt;&lt;font style=&quot;font-size: 10px;&quot;&gt;Cadastro ou Login&lt;/font&gt;&lt;/div&gt;" style="rounded=1;whiteSpace=wrap;html=1;fontFamily=Helvetica;fontSize=12;align=center;strokeColor=#d79b00;fillColor=#ffe6cc;" parent="dNxyNK7c78bLwvsdeMH5-20" vertex="1">
          <mxGeometry x="140" y="30" width="80" height="60" as="geometry" />
        </mxCell>
        <mxCell id="ytv9i6IObVo-lCA8z86A-4" value="&lt;font style=&quot;font-size: 10px;&quot;&gt;Insere dados de cadastro&lt;/font&gt;" style="rounded=1;whiteSpace=wrap;html=1;fontFamily=Helvetica;fontSize=12;align=center;fillColor=#ffe6cc;strokeColor=#d79b00;" parent="dNxyNK7c78bLwvsdeMH5-20" vertex="1">
          <mxGeometry x="380" y="30" width="80" height="60" as="geometry" />
        </mxCell>
        <mxCell id="ytv9i6IObVo-lCA8z86A-5" value="" style="rhombus;whiteSpace=wrap;html=1;fillColor=#fff2cc;strokeColor=#d6b656;" parent="dNxyNK7c78bLwvsdeMH5-20" vertex="1">
          <mxGeometry x="280" y="40" width="40" height="40" as="geometry" />
        </mxCell>
        <mxCell id="ytv9i6IObVo-lCA8z86A-9" value="&lt;font style=&quot;font-size: 10px;&quot;&gt;Cadastro&lt;/font&gt;" style="text;html=1;align=center;verticalAlign=middle;resizable=0;points=[];autosize=1;strokeColor=none;fillColor=none;" parent="dNxyNK7c78bLwvsdeMH5-20" vertex="1">
          <mxGeometry x="310" y="40" width="60" height="30" as="geometry" />
        </mxCell>
        <mxCell id="ytv9i6IObVo-lCA8z86A-77" value="&lt;font style=&quot;font-size: 10px;&quot;&gt;Login&lt;/font&gt;" style="text;html=1;align=center;verticalAlign=middle;resizable=0;points=[];autosize=1;strokeColor=none;fillColor=none;" parent="dNxyNK7c78bLwvsdeMH5-20" vertex="1">
          <mxGeometry x="260" y="80" width="50" height="30" as="geometry" />
        </mxCell>
        <mxCell id="67VtHt4RENRJBgxcd_Gk-150" value="" style="ellipse;whiteSpace=wrap;html=1;aspect=fixed;fillColor=#f8cecc;strokeColor=#b85450;" parent="dNxyNK7c78bLwvsdeMH5-20" vertex="1">
          <mxGeometry x="660" y="40" width="40" height="40" as="geometry" />
        </mxCell>
        <mxCell id="dNxyNK7c78bLwvsdeMH5-21" value="Peaches" style="swimlane;html=1;startSize=20;horizontal=0;" parent="dNxyNK7c78bLwvsdeMH5-19" vertex="1">
          <mxGeometry x="20" y="120" width="1060" height="120" as="geometry" />
        </mxCell>
        <mxCell id="ytv9i6IObVo-lCA8z86A-2" value="&lt;font style=&quot;font-size: 10px;&quot;&gt;Solicita Dados&lt;/font&gt;&lt;div&gt;&lt;font style=&quot;font-size: 10px;&quot;&gt;(e-mail, senha, nome, CPF, etc.)&lt;/font&gt;&lt;/div&gt;" style="rounded=1;whiteSpace=wrap;html=1;fontFamily=Helvetica;fontSize=12;align=center;fillColor=#ffe6cc;strokeColor=#d79b00;" parent="dNxyNK7c78bLwvsdeMH5-21" vertex="1">
          <mxGeometry x="380" y="30" width="80" height="60" as="geometry" />
        </mxCell>
        <mxCell id="ytv9i6IObVo-lCA8z86A-31" value="&lt;font style=&quot;font-size: 10px;&quot;&gt;Incorreto&lt;/font&gt;" style="text;html=1;align=center;verticalAlign=middle;resizable=0;points=[];autosize=1;strokeColor=none;fillColor=none;" parent="dNxyNK7c78bLwvsdeMH5-21" vertex="1">
          <mxGeometry x="740" y="90" width="60" height="30" as="geometry" />
        </mxCell>
        <mxCell id="ytv9i6IObVo-lCA8z86A-78" style="edgeStyle=orthogonalEdgeStyle;rounded=0;orthogonalLoop=1;jettySize=auto;html=1;exitX=1;exitY=0.5;exitDx=0;exitDy=0;entryX=0;entryY=0.5;entryDx=0;entryDy=0;" parent="dNxyNK7c78bLwvsdeMH5-21" source="ytv9i6IObVo-lCA8z86A-69" target="ytv9i6IObVo-lCA8z86A-2" edge="1">
          <mxGeometry relative="1" as="geometry" />
        </mxCell>
        <mxCell id="ytv9i6IObVo-lCA8z86A-69" value="" style="ellipse;whiteSpace=wrap;html=1;fillColor=#d5e8d4;strokeColor=#82b366;" parent="dNxyNK7c78bLwvsdeMH5-21" vertex="1">
          <mxGeometry x="300" y="40" width="40" height="40" as="geometry" />
        </mxCell>
        <mxCell id="67VtHt4RENRJBgxcd_Gk-149" style="edgeStyle=orthogonalEdgeStyle;rounded=0;orthogonalLoop=1;jettySize=auto;html=1;exitX=0.75;exitY=1;exitDx=0;exitDy=0;entryX=0.5;entryY=0;entryDx=0;entryDy=0;dashed=1;" parent="dNxyNK7c78bLwvsdeMH5-21" source="ytv9i6IObVo-lCA8z86A-18" target="ytv9i6IObVo-lCA8z86A-21" edge="1">
          <mxGeometry relative="1" as="geometry">
            <Array as="points">
              <mxPoint x="600" y="-10" />
              <mxPoint x="700" y="-10" />
            </Array>
          </mxGeometry>
        </mxCell>
        <mxCell id="ytv9i6IObVo-lCA8z86A-18" value="&lt;font style=&quot;font-size: 10px;&quot;&gt;Insere dados&lt;/font&gt;&lt;div&gt;&lt;font style=&quot;font-size: 10px;&quot;&gt;de login&lt;/font&gt;&lt;/div&gt;" style="rounded=1;whiteSpace=wrap;html=1;fontFamily=Helvetica;fontSize=12;align=center;fillColor=#ffe6cc;strokeColor=#d79b00;" parent="dNxyNK7c78bLwvsdeMH5-21" vertex="1">
          <mxGeometry x="540" y="-90" width="80" height="60" as="geometry" />
        </mxCell>
        <mxCell id="ytv9i6IObVo-lCA8z86A-14" value="&lt;span style=&quot;font-size: 10px;&quot;&gt;Exibe tela de login e solicita e-mail e senha&lt;/span&gt;" style="rounded=1;whiteSpace=wrap;html=1;fontFamily=Helvetica;fontSize=12;align=center;fillColor=#ffe6cc;strokeColor=#d79b00;" parent="dNxyNK7c78bLwvsdeMH5-21" vertex="1">
          <mxGeometry x="540" y="30" width="80" height="60" as="geometry" />
        </mxCell>
        <mxCell id="ytv9i6IObVo-lCA8z86A-26" style="edgeStyle=orthogonalEdgeStyle;rounded=0;orthogonalLoop=1;jettySize=auto;html=1;exitX=1;exitY=0.5;exitDx=0;exitDy=0;entryX=0;entryY=0.5;entryDx=0;entryDy=0;" parent="dNxyNK7c78bLwvsdeMH5-21" source="ytv9i6IObVo-lCA8z86A-21" target="ytv9i6IObVo-lCA8z86A-22" edge="1">
          <mxGeometry relative="1" as="geometry" />
        </mxCell>
        <mxCell id="ytv9i6IObVo-lCA8z86A-21" value="&lt;span style=&quot;font-size: 10px;&quot;&gt;Valida e-mail e senha&lt;/span&gt;" style="rounded=1;whiteSpace=wrap;html=1;fontFamily=Helvetica;fontSize=12;align=center;fillColor=#ffe6cc;strokeColor=#d79b00;" parent="dNxyNK7c78bLwvsdeMH5-21" vertex="1">
          <mxGeometry x="660" y="30" width="80" height="60" as="geometry" />
        </mxCell>
        <mxCell id="ytv9i6IObVo-lCA8z86A-33" style="edgeStyle=orthogonalEdgeStyle;rounded=0;orthogonalLoop=1;jettySize=auto;html=1;exitX=1;exitY=0.5;exitDx=0;exitDy=0;entryX=0;entryY=0.5;entryDx=0;entryDy=0;" parent="dNxyNK7c78bLwvsdeMH5-21" source="ytv9i6IObVo-lCA8z86A-22" target="ytv9i6IObVo-lCA8z86A-25" edge="1">
          <mxGeometry relative="1" as="geometry" />
        </mxCell>
        <mxCell id="ytv9i6IObVo-lCA8z86A-22" value="" style="rhombus;whiteSpace=wrap;html=1;fillColor=#fff2cc;strokeColor=#d6b656;" parent="dNxyNK7c78bLwvsdeMH5-21" vertex="1">
          <mxGeometry x="780" y="40" width="40" height="40" as="geometry" />
        </mxCell>
        <mxCell id="ytv9i6IObVo-lCA8z86A-34" style="edgeStyle=orthogonalEdgeStyle;rounded=0;orthogonalLoop=1;jettySize=auto;html=1;exitX=1;exitY=0.5;exitDx=0;exitDy=0;" parent="dNxyNK7c78bLwvsdeMH5-21" source="ytv9i6IObVo-lCA8z86A-25" edge="1">
          <mxGeometry relative="1" as="geometry">
            <mxPoint x="980" y="59.88888888888886" as="targetPoint" />
          </mxGeometry>
        </mxCell>
        <mxCell id="ytv9i6IObVo-lCA8z86A-25" value="&lt;span style=&quot;font-size: 10px;&quot;&gt;Exibe a tela inicial com a sessão do usuário&lt;/span&gt;" style="rounded=1;whiteSpace=wrap;html=1;fontFamily=Helvetica;fontSize=12;align=center;fillColor=#ffe6cc;strokeColor=#d79b00;" parent="dNxyNK7c78bLwvsdeMH5-21" vertex="1">
          <mxGeometry x="867" y="30" width="80" height="60" as="geometry" />
        </mxCell>
        <mxCell id="ytv9i6IObVo-lCA8z86A-29" style="edgeStyle=orthogonalEdgeStyle;rounded=0;orthogonalLoop=1;jettySize=auto;html=1;exitX=0.5;exitY=1;exitDx=0;exitDy=0;entryX=0.625;entryY=1.01;entryDx=0;entryDy=0;entryPerimeter=0;" parent="dNxyNK7c78bLwvsdeMH5-21" source="ytv9i6IObVo-lCA8z86A-22" target="ytv9i6IObVo-lCA8z86A-14" edge="1">
          <mxGeometry relative="1" as="geometry">
            <Array as="points">
              <mxPoint x="800" y="110" />
              <mxPoint x="590" y="110" />
            </Array>
          </mxGeometry>
        </mxCell>
        <mxCell id="ytv9i6IObVo-lCA8z86A-32" value="&lt;font style=&quot;font-size: 10px;&quot;&gt;Correto&lt;/font&gt;" style="text;html=1;align=center;verticalAlign=middle;resizable=0;points=[];autosize=1;strokeColor=none;fillColor=none;" parent="dNxyNK7c78bLwvsdeMH5-21" vertex="1">
          <mxGeometry x="807" y="40" width="60" height="30" as="geometry" />
        </mxCell>
        <mxCell id="ytv9i6IObVo-lCA8z86A-35" value="" style="ellipse;whiteSpace=wrap;html=1;aspect=fixed;fillColor=#f8cecc;strokeColor=#b85450;" parent="dNxyNK7c78bLwvsdeMH5-21" vertex="1">
          <mxGeometry x="980" y="40" width="40" height="40" as="geometry" />
        </mxCell>
        <mxCell id="ytv9i6IObVo-lCA8z86A-87" style="edgeStyle=orthogonalEdgeStyle;rounded=0;orthogonalLoop=1;jettySize=auto;html=1;exitX=0.5;exitY=0;exitDx=0;exitDy=0;entryX=0.5;entryY=1;entryDx=0;entryDy=0;dashed=1;" parent="dNxyNK7c78bLwvsdeMH5-21" source="ytv9i6IObVo-lCA8z86A-14" target="ytv9i6IObVo-lCA8z86A-18" edge="1">
          <mxGeometry relative="1" as="geometry" />
        </mxCell>
        <mxCell id="ytv9i6IObVo-lCA8z86A-82" style="edgeStyle=orthogonalEdgeStyle;rounded=0;orthogonalLoop=1;jettySize=auto;html=1;exitX=0.5;exitY=1;exitDx=0;exitDy=0;entryX=0.37;entryY=1.007;entryDx=0;entryDy=0;entryPerimeter=0;dashed=1;" parent="dNxyNK7c78bLwvsdeMH5-19" source="ytv9i6IObVo-lCA8z86A-5" target="ytv9i6IObVo-lCA8z86A-14" edge="1">
          <mxGeometry relative="1" as="geometry">
            <Array as="points">
              <mxPoint x="320" y="140" />
              <mxPoint x="300" y="140" />
              <mxPoint x="300" y="230" />
              <mxPoint x="590" y="230" />
              <mxPoint x="590" y="210" />
            </Array>
          </mxGeometry>
        </mxCell>
        <mxCell id="ytv9i6IObVo-lCA8z86A-84" style="edgeStyle=orthogonalEdgeStyle;rounded=0;orthogonalLoop=1;jettySize=auto;html=1;exitX=1;exitY=0.5;exitDx=0;exitDy=0;entryX=0.25;entryY=0;entryDx=0;entryDy=0;dashed=1;" parent="dNxyNK7c78bLwvsdeMH5-19" source="ytv9i6IObVo-lCA8z86A-5" target="ytv9i6IObVo-lCA8z86A-2" edge="1">
          <mxGeometry relative="1" as="geometry">
            <Array as="points">
              <mxPoint x="380" y="60" />
              <mxPoint x="380" y="110" />
              <mxPoint x="420" y="110" />
            </Array>
          </mxGeometry>
        </mxCell>
        <mxCell id="ytv9i6IObVo-lCA8z86A-85" style="edgeStyle=orthogonalEdgeStyle;rounded=0;orthogonalLoop=1;jettySize=auto;html=1;exitX=0.5;exitY=0;exitDx=0;exitDy=0;entryX=0.5;entryY=1;entryDx=0;entryDy=0;dashed=1;" parent="dNxyNK7c78bLwvsdeMH5-19" source="ytv9i6IObVo-lCA8z86A-2" target="ytv9i6IObVo-lCA8z86A-4" edge="1">
          <mxGeometry relative="1" as="geometry" />
        </mxCell>
        <mxCell id="ytv9i6IObVo-lCA8z86A-86" style="edgeStyle=orthogonalEdgeStyle;rounded=0;orthogonalLoop=1;jettySize=auto;html=1;exitX=1;exitY=0.5;exitDx=0;exitDy=0;entryX=0;entryY=0.5;entryDx=0;entryDy=0;dashed=1;" parent="dNxyNK7c78bLwvsdeMH5-19" source="ytv9i6IObVo-lCA8z86A-4" target="ytv9i6IObVo-lCA8z86A-14" edge="1">
          <mxGeometry relative="1" as="geometry">
            <mxPoint x="560" y="150" as="targetPoint" />
          </mxGeometry>
        </mxCell>
        <mxCell id="67VtHt4RENRJBgxcd_Gk-151" style="edgeStyle=orthogonalEdgeStyle;rounded=0;orthogonalLoop=1;jettySize=auto;html=1;exitX=1;exitY=0.5;exitDx=0;exitDy=0;entryX=0;entryY=0.5;entryDx=0;entryDy=0;" parent="dNxyNK7c78bLwvsdeMH5-19" source="ytv9i6IObVo-lCA8z86A-18" target="67VtHt4RENRJBgxcd_Gk-150" edge="1">
          <mxGeometry relative="1" as="geometry" />
        </mxCell>
        <mxCell id="ytv9i6IObVo-lCA8z86A-37" value="Escolha do Produto" style="swimlane;html=1;childLayout=stackLayout;resizeParent=1;resizeParentMax=0;horizontal=0;startSize=20;horizontalStack=0;" parent="1" vertex="1">
          <mxGeometry x="40" y="320" width="580" height="240" as="geometry" />
        </mxCell>
        <mxCell id="ytv9i6IObVo-lCA8z86A-38" value="Cliente" style="swimlane;html=1;startSize=20;horizontal=0;" parent="ytv9i6IObVo-lCA8z86A-37" vertex="1">
          <mxGeometry x="20" width="560" height="120" as="geometry" />
        </mxCell>
        <mxCell id="ytv9i6IObVo-lCA8z86A-40" value="" style="ellipse;whiteSpace=wrap;html=1;fillColor=#d5e8d4;strokeColor=#82b366;" parent="ytv9i6IObVo-lCA8z86A-38" vertex="1">
          <mxGeometry x="140" y="40" width="40" height="40" as="geometry" />
        </mxCell>
        <mxCell id="67VtHt4RENRJBgxcd_Gk-148" style="edgeStyle=orthogonalEdgeStyle;rounded=0;orthogonalLoop=1;jettySize=auto;html=1;exitX=1;exitY=0.5;exitDx=0;exitDy=0;entryX=0;entryY=0.5;entryDx=0;entryDy=0;" parent="ytv9i6IObVo-lCA8z86A-38" source="ytv9i6IObVo-lCA8z86A-91" target="67VtHt4RENRJBgxcd_Gk-145" edge="1">
          <mxGeometry relative="1" as="geometry" />
        </mxCell>
        <mxCell id="ytv9i6IObVo-lCA8z86A-91" value="&lt;span style=&quot;font-size: 10px;&quot;&gt;Escolhe o produto&lt;/span&gt;" style="rounded=1;whiteSpace=wrap;html=1;fontFamily=Helvetica;fontSize=12;align=center;strokeColor=#d79b00;fillColor=#ffe6cc;" parent="ytv9i6IObVo-lCA8z86A-38" vertex="1">
          <mxGeometry x="360" y="30" width="80" height="60" as="geometry" />
        </mxCell>
        <mxCell id="ytv9i6IObVo-lCA8z86A-89" value="&lt;span style=&quot;font-size: 10px;&quot;&gt;Visualiza o catálogo de produtos&lt;/span&gt;" style="rounded=1;whiteSpace=wrap;html=1;fontFamily=Helvetica;fontSize=12;align=center;strokeColor=#d79b00;fillColor=#ffe6cc;" parent="ytv9i6IObVo-lCA8z86A-38" vertex="1">
          <mxGeometry x="220" y="30" width="80" height="60" as="geometry" />
        </mxCell>
        <mxCell id="ytv9i6IObVo-lCA8z86A-97" style="edgeStyle=orthogonalEdgeStyle;rounded=0;orthogonalLoop=1;jettySize=auto;html=1;exitX=1;exitY=0.5;exitDx=0;exitDy=0;entryX=0;entryY=0.5;entryDx=0;entryDy=0;" parent="ytv9i6IObVo-lCA8z86A-38" source="ytv9i6IObVo-lCA8z86A-40" target="ytv9i6IObVo-lCA8z86A-89" edge="1">
          <mxGeometry relative="1" as="geometry" />
        </mxCell>
        <mxCell id="ytv9i6IObVo-lCA8z86A-92" style="edgeStyle=orthogonalEdgeStyle;rounded=0;orthogonalLoop=1;jettySize=auto;html=1;exitX=1;exitY=0.5;exitDx=0;exitDy=0;entryX=0;entryY=0.5;entryDx=0;entryDy=0;" parent="ytv9i6IObVo-lCA8z86A-38" source="ytv9i6IObVo-lCA8z86A-89" target="ytv9i6IObVo-lCA8z86A-91" edge="1">
          <mxGeometry relative="1" as="geometry" />
        </mxCell>
        <mxCell id="67VtHt4RENRJBgxcd_Gk-145" value="" style="ellipse;whiteSpace=wrap;html=1;aspect=fixed;fillColor=#f8cecc;strokeColor=#b85450;" parent="ytv9i6IObVo-lCA8z86A-38" vertex="1">
          <mxGeometry x="480" y="40" width="40" height="40" as="geometry" />
        </mxCell>
        <mxCell id="ytv9i6IObVo-lCA8z86A-49" value="Peaches" style="swimlane;html=1;startSize=20;horizontal=0;" parent="ytv9i6IObVo-lCA8z86A-37" vertex="1">
          <mxGeometry x="20" y="120" width="560" height="120" as="geometry" />
        </mxCell>
        <mxCell id="ytv9i6IObVo-lCA8z86A-64" style="edgeStyle=orthogonalEdgeStyle;rounded=0;orthogonalLoop=1;jettySize=auto;html=1;exitX=0.5;exitY=1;exitDx=0;exitDy=0;entryX=0.363;entryY=1.017;entryDx=0;entryDy=0;entryPerimeter=0;" parent="ytv9i6IObVo-lCA8z86A-49" edge="1">
          <mxGeometry relative="1" as="geometry">
            <Array as="points">
              <mxPoint x="160" y="110" />
              <mxPoint x="529" y="110" />
            </Array>
            <mxPoint x="160" y="80" as="sourcePoint" />
          </mxGeometry>
        </mxCell>
        <mxCell id="ytv9i6IObVo-lCA8z86A-65" style="edgeStyle=orthogonalEdgeStyle;rounded=0;orthogonalLoop=1;jettySize=auto;html=1;exitX=0.5;exitY=1;exitDx=0;exitDy=0;entryX=0.625;entryY=1.01;entryDx=0;entryDy=0;entryPerimeter=0;" parent="ytv9i6IObVo-lCA8z86A-49" edge="1">
          <mxGeometry relative="1" as="geometry">
            <Array as="points">
              <mxPoint x="760" y="110" />
              <mxPoint x="550" y="110" />
            </Array>
            <mxPoint x="550" y="90.60000000000002" as="targetPoint" />
          </mxGeometry>
        </mxCell>
        <mxCell id="ytv9i6IObVo-lCA8z86A-41" value="&lt;span style=&quot;font-size: 10px;&quot;&gt;Exibe o catálogo de produtos&lt;/span&gt;" style="rounded=1;whiteSpace=wrap;html=1;fontFamily=Helvetica;fontSize=12;align=center;strokeColor=#d79b00;fillColor=#ffe6cc;" parent="ytv9i6IObVo-lCA8z86A-49" vertex="1">
          <mxGeometry x="140" y="30" width="80" height="60" as="geometry" />
        </mxCell>
        <mxCell id="ytv9i6IObVo-lCA8z86A-96" style="edgeStyle=orthogonalEdgeStyle;rounded=0;orthogonalLoop=1;jettySize=auto;html=1;exitX=1;exitY=0.5;exitDx=0;exitDy=0;entryX=0;entryY=0.5;entryDx=0;entryDy=0;" parent="ytv9i6IObVo-lCA8z86A-49" source="ytv9i6IObVo-lCA8z86A-95" target="ytv9i6IObVo-lCA8z86A-41" edge="1">
          <mxGeometry relative="1" as="geometry" />
        </mxCell>
        <mxCell id="ytv9i6IObVo-lCA8z86A-95" value="" style="ellipse;whiteSpace=wrap;html=1;fillColor=#d5e8d4;strokeColor=#82b366;" parent="ytv9i6IObVo-lCA8z86A-49" vertex="1">
          <mxGeometry x="60" y="40" width="40" height="40" as="geometry" />
        </mxCell>
        <mxCell id="ytv9i6IObVo-lCA8z86A-103" style="edgeStyle=orthogonalEdgeStyle;rounded=0;orthogonalLoop=1;jettySize=auto;html=1;exitX=1;exitY=0.5;exitDx=0;exitDy=0;entryX=0;entryY=0.5;entryDx=0;entryDy=0;" parent="ytv9i6IObVo-lCA8z86A-49" source="ytv9i6IObVo-lCA8z86A-100" target="ytv9i6IObVo-lCA8z86A-102" edge="1">
          <mxGeometry relative="1" as="geometry" />
        </mxCell>
        <mxCell id="ytv9i6IObVo-lCA8z86A-100" value="&lt;span style=&quot;font-size: 10px;&quot;&gt;Prossegue para a etapa de personalização&lt;/span&gt;" style="rounded=1;whiteSpace=wrap;html=1;fontFamily=Helvetica;fontSize=12;align=center;strokeColor=#d79b00;fillColor=#ffe6cc;" parent="ytv9i6IObVo-lCA8z86A-49" vertex="1">
          <mxGeometry x="360" y="30" width="80" height="60" as="geometry" />
        </mxCell>
        <mxCell id="ytv9i6IObVo-lCA8z86A-102" value="" style="ellipse;whiteSpace=wrap;html=1;aspect=fixed;fillColor=#f8cecc;strokeColor=#b85450;" parent="ytv9i6IObVo-lCA8z86A-49" vertex="1">
          <mxGeometry x="480" y="40" width="40" height="40" as="geometry" />
        </mxCell>
        <mxCell id="ytv9i6IObVo-lCA8z86A-94" style="edgeStyle=orthogonalEdgeStyle;rounded=0;orthogonalLoop=1;jettySize=auto;html=1;exitX=0.5;exitY=1;exitDx=0;exitDy=0;entryX=0.5;entryY=0;entryDx=0;entryDy=0;dashed=1;" parent="ytv9i6IObVo-lCA8z86A-37" source="ytv9i6IObVo-lCA8z86A-91" edge="1">
          <mxGeometry relative="1" as="geometry">
            <mxPoint x="420" y="150" as="targetPoint" />
          </mxGeometry>
        </mxCell>
        <mxCell id="ytv9i6IObVo-lCA8z86A-90" style="edgeStyle=orthogonalEdgeStyle;rounded=0;orthogonalLoop=1;jettySize=auto;html=1;exitX=1;exitY=0.5;exitDx=0;exitDy=0;entryX=0.5;entryY=1;entryDx=0;entryDy=0;dashed=1;" parent="ytv9i6IObVo-lCA8z86A-37" source="ytv9i6IObVo-lCA8z86A-41" target="ytv9i6IObVo-lCA8z86A-89" edge="1">
          <mxGeometry relative="1" as="geometry" />
        </mxCell>
        <mxCell id="ytv9i6IObVo-lCA8z86A-104" value="Personalização" style="swimlane;html=1;childLayout=stackLayout;resizeParent=1;resizeParentMax=0;horizontal=0;startSize=20;horizontalStack=0;" parent="1" vertex="1">
          <mxGeometry x="40" y="600" width="1100" height="360" as="geometry" />
        </mxCell>
        <mxCell id="ytv9i6IObVo-lCA8z86A-121" style="edgeStyle=orthogonalEdgeStyle;rounded=0;orthogonalLoop=1;jettySize=auto;html=1;exitX=1;exitY=0.5;exitDx=0;exitDy=0;entryX=0.5;entryY=1;entryDx=0;entryDy=0;dashed=1;" parent="ytv9i6IObVo-lCA8z86A-104" source="ytv9i6IObVo-lCA8z86A-114" target="ytv9i6IObVo-lCA8z86A-108" edge="1">
          <mxGeometry relative="1" as="geometry" />
        </mxCell>
        <mxCell id="ytv9i6IObVo-lCA8z86A-122" style="edgeStyle=orthogonalEdgeStyle;rounded=0;orthogonalLoop=1;jettySize=auto;html=1;exitX=1;exitY=0.5;exitDx=0;exitDy=0;entryX=0.5;entryY=0;entryDx=0;entryDy=0;dashed=1;" parent="ytv9i6IObVo-lCA8z86A-104" source="ytv9i6IObVo-lCA8z86A-108" target="ytv9i6IObVo-lCA8z86A-118" edge="1">
          <mxGeometry relative="1" as="geometry" />
        </mxCell>
        <mxCell id="ytv9i6IObVo-lCA8z86A-105" value="Cliente" style="swimlane;html=1;startSize=20;horizontal=0;" parent="ytv9i6IObVo-lCA8z86A-104" vertex="1">
          <mxGeometry x="20" width="1080" height="120" as="geometry" />
        </mxCell>
        <mxCell id="ytv9i6IObVo-lCA8z86A-106" value="" style="ellipse;whiteSpace=wrap;html=1;fillColor=#d5e8d4;strokeColor=#82b366;" parent="ytv9i6IObVo-lCA8z86A-105" vertex="1">
          <mxGeometry x="140" y="40" width="40" height="40" as="geometry" />
        </mxCell>
        <mxCell id="ytv9i6IObVo-lCA8z86A-108" value="&lt;span style=&quot;font-size: 10px;&quot;&gt;Seleciona cor e tamanho&lt;/span&gt;" style="rounded=1;whiteSpace=wrap;html=1;fontFamily=Helvetica;fontSize=12;align=center;strokeColor=#d79b00;fillColor=#ffe6cc;" parent="ytv9i6IObVo-lCA8z86A-105" vertex="1">
          <mxGeometry x="220" y="30" width="80" height="60" as="geometry" />
        </mxCell>
        <mxCell id="ytv9i6IObVo-lCA8z86A-109" style="edgeStyle=orthogonalEdgeStyle;rounded=0;orthogonalLoop=1;jettySize=auto;html=1;exitX=1;exitY=0.5;exitDx=0;exitDy=0;entryX=0;entryY=0.5;entryDx=0;entryDy=0;" parent="ytv9i6IObVo-lCA8z86A-105" source="ytv9i6IObVo-lCA8z86A-106" target="ytv9i6IObVo-lCA8z86A-108" edge="1">
          <mxGeometry relative="1" as="geometry" />
        </mxCell>
        <mxCell id="ytv9i6IObVo-lCA8z86A-123" value="&lt;span style=&quot;font-size: 10px;&quot;&gt;Insere descrição do estilo da estampa&lt;/span&gt;" style="rounded=1;whiteSpace=wrap;html=1;fontFamily=Helvetica;fontSize=12;align=center;strokeColor=#d79b00;fillColor=#ffe6cc;" parent="ytv9i6IObVo-lCA8z86A-105" vertex="1">
          <mxGeometry x="420" y="30" width="80" height="60" as="geometry" />
        </mxCell>
        <mxCell id="ytv9i6IObVo-lCA8z86A-147" style="edgeStyle=orthogonalEdgeStyle;rounded=0;orthogonalLoop=1;jettySize=auto;html=1;exitX=1;exitY=0.5;exitDx=0;exitDy=0;entryX=0;entryY=0.5;entryDx=0;entryDy=0;" parent="ytv9i6IObVo-lCA8z86A-105" source="ytv9i6IObVo-lCA8z86A-145" target="ytv9i6IObVo-lCA8z86A-146" edge="1">
          <mxGeometry relative="1" as="geometry" />
        </mxCell>
        <mxCell id="ytv9i6IObVo-lCA8z86A-145" value="&lt;span style=&quot;font-size: 10px;&quot;&gt;Seleciona estampa ou solicita mais opções&lt;/span&gt;" style="rounded=1;whiteSpace=wrap;html=1;fontFamily=Helvetica;fontSize=12;align=center;strokeColor=#d79b00;fillColor=#ffe6cc;" parent="ytv9i6IObVo-lCA8z86A-105" vertex="1">
          <mxGeometry x="660" y="30" width="80" height="60" as="geometry" />
        </mxCell>
        <mxCell id="67VtHt4RENRJBgxcd_Gk-141" style="edgeStyle=orthogonalEdgeStyle;rounded=0;orthogonalLoop=1;jettySize=auto;html=1;exitX=1;exitY=0.5;exitDx=0;exitDy=0;entryX=0;entryY=0.5;entryDx=0;entryDy=0;" parent="ytv9i6IObVo-lCA8z86A-105" source="ytv9i6IObVo-lCA8z86A-146" target="67VtHt4RENRJBgxcd_Gk-140" edge="1">
          <mxGeometry relative="1" as="geometry" />
        </mxCell>
        <mxCell id="ytv9i6IObVo-lCA8z86A-146" value="" style="rhombus;whiteSpace=wrap;html=1;fillColor=#fff2cc;strokeColor=#d6b656;" parent="ytv9i6IObVo-lCA8z86A-105" vertex="1">
          <mxGeometry x="820" y="40" width="40" height="40" as="geometry" />
        </mxCell>
        <mxCell id="ytv9i6IObVo-lCA8z86A-155" value="&lt;font style=&quot;font-size: 10px;&quot;&gt;Selecionou uma&lt;/font&gt;&lt;div style=&quot;line-height: 100%;&quot;&gt;&lt;font style=&quot;font-size: 10px;&quot;&gt;das opções&lt;/font&gt;&lt;/div&gt;" style="text;html=1;align=center;verticalAlign=middle;resizable=0;points=[];autosize=1;strokeColor=none;fillColor=none;" parent="ytv9i6IObVo-lCA8z86A-105" vertex="1">
          <mxGeometry x="840" y="20" width="100" height="40" as="geometry" />
        </mxCell>
        <mxCell id="ytv9i6IObVo-lCA8z86A-156" value="&lt;span style=&quot;font-size: 10px;&quot;&gt;Solicitou mais&lt;/span&gt;&lt;div&gt;&lt;span style=&quot;font-size: 10px;&quot;&gt;opções&lt;/span&gt;&lt;/div&gt;" style="text;html=1;align=center;verticalAlign=middle;resizable=0;points=[];autosize=1;strokeColor=none;fillColor=none;" parent="ytv9i6IObVo-lCA8z86A-105" vertex="1">
          <mxGeometry x="760" y="80" width="90" height="40" as="geometry" />
        </mxCell>
        <mxCell id="67VtHt4RENRJBgxcd_Gk-140" value="" style="ellipse;whiteSpace=wrap;html=1;aspect=fixed;fillColor=#f8cecc;strokeColor=#b85450;" parent="ytv9i6IObVo-lCA8z86A-105" vertex="1">
          <mxGeometry x="980" y="40" width="40" height="40" as="geometry" />
        </mxCell>
        <mxCell id="ytv9i6IObVo-lCA8z86A-111" value="Peaches" style="swimlane;html=1;startSize=20;horizontal=0;" parent="ytv9i6IObVo-lCA8z86A-104" vertex="1">
          <mxGeometry x="20" y="120" width="1080" height="120" as="geometry" />
        </mxCell>
        <mxCell id="ytv9i6IObVo-lCA8z86A-112" style="edgeStyle=orthogonalEdgeStyle;rounded=0;orthogonalLoop=1;jettySize=auto;html=1;exitX=0.5;exitY=1;exitDx=0;exitDy=0;entryX=0.363;entryY=1.017;entryDx=0;entryDy=0;entryPerimeter=0;" parent="ytv9i6IObVo-lCA8z86A-111" edge="1">
          <mxGeometry relative="1" as="geometry">
            <Array as="points">
              <mxPoint x="160" y="110" />
              <mxPoint x="529" y="110" />
            </Array>
            <mxPoint x="160" y="80" as="sourcePoint" />
          </mxGeometry>
        </mxCell>
        <mxCell id="ytv9i6IObVo-lCA8z86A-113" style="edgeStyle=orthogonalEdgeStyle;rounded=0;orthogonalLoop=1;jettySize=auto;html=1;exitX=0.5;exitY=1;exitDx=0;exitDy=0;entryX=0.625;entryY=1.01;entryDx=0;entryDy=0;entryPerimeter=0;" parent="ytv9i6IObVo-lCA8z86A-111" edge="1">
          <mxGeometry relative="1" as="geometry">
            <Array as="points">
              <mxPoint x="760" y="110" />
              <mxPoint x="550" y="110" />
            </Array>
            <mxPoint x="550" y="90.60000000000002" as="targetPoint" />
          </mxGeometry>
        </mxCell>
        <mxCell id="ytv9i6IObVo-lCA8z86A-114" value="&lt;span style=&quot;font-size: 10px;&quot;&gt;Fornece opções de cor e tamanho&lt;/span&gt;&lt;div&gt;&lt;span style=&quot;font-size: 10px;&quot;&gt;para o produto&lt;/span&gt;&lt;/div&gt;" style="rounded=1;whiteSpace=wrap;html=1;fontFamily=Helvetica;fontSize=12;align=center;strokeColor=#d79b00;fillColor=#ffe6cc;" parent="ytv9i6IObVo-lCA8z86A-111" vertex="1">
          <mxGeometry x="140" y="30" width="80" height="60" as="geometry" />
        </mxCell>
        <mxCell id="ytv9i6IObVo-lCA8z86A-115" style="edgeStyle=orthogonalEdgeStyle;rounded=0;orthogonalLoop=1;jettySize=auto;html=1;exitX=1;exitY=0.5;exitDx=0;exitDy=0;entryX=0;entryY=0.5;entryDx=0;entryDy=0;" parent="ytv9i6IObVo-lCA8z86A-111" source="ytv9i6IObVo-lCA8z86A-116" target="ytv9i6IObVo-lCA8z86A-114" edge="1">
          <mxGeometry relative="1" as="geometry" />
        </mxCell>
        <mxCell id="ytv9i6IObVo-lCA8z86A-116" value="" style="ellipse;whiteSpace=wrap;html=1;fillColor=#d5e8d4;strokeColor=#82b366;" parent="ytv9i6IObVo-lCA8z86A-111" vertex="1">
          <mxGeometry x="60" y="40" width="40" height="40" as="geometry" />
        </mxCell>
        <mxCell id="ytv9i6IObVo-lCA8z86A-118" value="&lt;span style=&quot;font-size: 10px;&quot;&gt;Solicita descrição do estilo da estampa&lt;/span&gt;" style="rounded=1;whiteSpace=wrap;html=1;fontFamily=Helvetica;fontSize=12;align=center;strokeColor=#d79b00;fillColor=#ffe6cc;" parent="ytv9i6IObVo-lCA8z86A-111" vertex="1">
          <mxGeometry x="320" y="30" width="80" height="60" as="geometry" />
        </mxCell>
        <mxCell id="ytv9i6IObVo-lCA8z86A-125" value="&lt;font style=&quot;font-size: 10px;&quot;&gt;Solicita estampas para IA&lt;/font&gt;" style="rounded=1;whiteSpace=wrap;html=1;fontFamily=Helvetica;fontSize=12;align=center;strokeColor=#d79b00;fillColor=#ffe6cc;" parent="ytv9i6IObVo-lCA8z86A-111" vertex="1">
          <mxGeometry x="520" y="30" width="80" height="60" as="geometry" />
        </mxCell>
        <mxCell id="ytv9i6IObVo-lCA8z86A-141" value="&lt;font style=&quot;font-size: 10px;&quot;&gt;Solicita escolha da estampa para o usuário&lt;/font&gt;" style="rounded=1;whiteSpace=wrap;html=1;fontFamily=Helvetica;fontSize=12;align=center;strokeColor=#d79b00;fillColor=#ffe6cc;" parent="ytv9i6IObVo-lCA8z86A-111" vertex="1">
          <mxGeometry x="660" y="30" width="80" height="60" as="geometry" />
        </mxCell>
        <mxCell id="ytv9i6IObVo-lCA8z86A-161" style="edgeStyle=orthogonalEdgeStyle;rounded=0;orthogonalLoop=1;jettySize=auto;html=1;exitX=1;exitY=0.5;exitDx=0;exitDy=0;entryX=0;entryY=0.5;entryDx=0;entryDy=0;" parent="ytv9i6IObVo-lCA8z86A-111" source="ytv9i6IObVo-lCA8z86A-157" target="ytv9i6IObVo-lCA8z86A-160" edge="1">
          <mxGeometry relative="1" as="geometry" />
        </mxCell>
        <mxCell id="ytv9i6IObVo-lCA8z86A-157" value="&lt;font style=&quot;font-size: 10px;&quot;&gt;Adiciona ao carrinho&lt;/font&gt;" style="rounded=1;whiteSpace=wrap;html=1;fontFamily=Helvetica;fontSize=12;align=center;strokeColor=#d79b00;fillColor=#ffe6cc;" parent="ytv9i6IObVo-lCA8z86A-111" vertex="1">
          <mxGeometry x="880" y="30" width="80" height="60" as="geometry" />
        </mxCell>
        <mxCell id="ytv9i6IObVo-lCA8z86A-160" value="" style="ellipse;whiteSpace=wrap;html=1;aspect=fixed;fillColor=#f8cecc;strokeColor=#b85450;" parent="ytv9i6IObVo-lCA8z86A-111" vertex="1">
          <mxGeometry x="1000" y="40" width="40" height="40" as="geometry" />
        </mxCell>
        <mxCell id="ytv9i6IObVo-lCA8z86A-137" value="IA Generativa" style="swimlane;html=1;startSize=20;horizontal=0;" parent="ytv9i6IObVo-lCA8z86A-104" vertex="1">
          <mxGeometry x="20" y="240" width="1080" height="120" as="geometry" />
        </mxCell>
        <mxCell id="67VtHt4RENRJBgxcd_Gk-144" style="edgeStyle=orthogonalEdgeStyle;rounded=0;orthogonalLoop=1;jettySize=auto;html=1;exitX=1;exitY=0.5;exitDx=0;exitDy=0;entryX=0;entryY=0.5;entryDx=0;entryDy=0;" parent="ytv9i6IObVo-lCA8z86A-137" source="ytv9i6IObVo-lCA8z86A-138" target="67VtHt4RENRJBgxcd_Gk-143" edge="1">
          <mxGeometry relative="1" as="geometry" />
        </mxCell>
        <mxCell id="ytv9i6IObVo-lCA8z86A-138" value="&lt;font style=&quot;font-size: 10px;&quot;&gt;Cria 5 estampas com a descrição dada&lt;/font&gt;" style="rounded=1;whiteSpace=wrap;html=1;fontFamily=Helvetica;fontSize=12;align=center;strokeColor=#d79b00;fillColor=#ffe6cc;" parent="ytv9i6IObVo-lCA8z86A-137" vertex="1">
          <mxGeometry x="520" y="30" width="80" height="60" as="geometry" />
        </mxCell>
        <mxCell id="ytv9i6IObVo-lCA8z86A-140" style="edgeStyle=orthogonalEdgeStyle;rounded=0;orthogonalLoop=1;jettySize=auto;html=1;exitX=1;exitY=0.5;exitDx=0;exitDy=0;entryX=0;entryY=0.5;entryDx=0;entryDy=0;" parent="ytv9i6IObVo-lCA8z86A-137" source="ytv9i6IObVo-lCA8z86A-139" target="ytv9i6IObVo-lCA8z86A-138" edge="1">
          <mxGeometry relative="1" as="geometry" />
        </mxCell>
        <mxCell id="ytv9i6IObVo-lCA8z86A-139" value="" style="ellipse;whiteSpace=wrap;html=1;fillColor=#d5e8d4;strokeColor=#82b366;" parent="ytv9i6IObVo-lCA8z86A-137" vertex="1">
          <mxGeometry x="440" y="40" width="40" height="40" as="geometry" />
        </mxCell>
        <mxCell id="67VtHt4RENRJBgxcd_Gk-143" value="" style="ellipse;whiteSpace=wrap;html=1;aspect=fixed;fillColor=#f8cecc;strokeColor=#b85450;" parent="ytv9i6IObVo-lCA8z86A-137" vertex="1">
          <mxGeometry x="640" y="40" width="40" height="40" as="geometry" />
        </mxCell>
        <mxCell id="ytv9i6IObVo-lCA8z86A-124" style="edgeStyle=orthogonalEdgeStyle;rounded=0;orthogonalLoop=1;jettySize=auto;html=1;exitX=1;exitY=0.5;exitDx=0;exitDy=0;entryX=0.5;entryY=1;entryDx=0;entryDy=0;dashed=1;" parent="ytv9i6IObVo-lCA8z86A-104" source="ytv9i6IObVo-lCA8z86A-118" target="ytv9i6IObVo-lCA8z86A-123" edge="1">
          <mxGeometry relative="1" as="geometry" />
        </mxCell>
        <mxCell id="ytv9i6IObVo-lCA8z86A-143" style="edgeStyle=orthogonalEdgeStyle;rounded=0;orthogonalLoop=1;jettySize=auto;html=1;exitX=0.5;exitY=1;exitDx=0;exitDy=0;entryX=0.5;entryY=0;entryDx=0;entryDy=0;dashed=1;" parent="ytv9i6IObVo-lCA8z86A-104" source="ytv9i6IObVo-lCA8z86A-125" target="ytv9i6IObVo-lCA8z86A-138" edge="1">
          <mxGeometry relative="1" as="geometry" />
        </mxCell>
        <mxCell id="ytv9i6IObVo-lCA8z86A-148" style="edgeStyle=orthogonalEdgeStyle;rounded=0;orthogonalLoop=1;jettySize=auto;html=1;exitX=0.5;exitY=0;exitDx=0;exitDy=0;entryX=0.5;entryY=1;entryDx=0;entryDy=0;dashed=1;" parent="ytv9i6IObVo-lCA8z86A-104" source="ytv9i6IObVo-lCA8z86A-141" target="ytv9i6IObVo-lCA8z86A-145" edge="1">
          <mxGeometry relative="1" as="geometry" />
        </mxCell>
        <mxCell id="ytv9i6IObVo-lCA8z86A-152" style="edgeStyle=orthogonalEdgeStyle;rounded=0;orthogonalLoop=1;jettySize=auto;html=1;exitX=1;exitY=0.5;exitDx=0;exitDy=0;entryX=0.5;entryY=0;entryDx=0;entryDy=0;dashed=1;" parent="ytv9i6IObVo-lCA8z86A-104" source="ytv9i6IObVo-lCA8z86A-146" edge="1">
          <mxGeometry relative="1" as="geometry">
            <mxPoint x="940" y="150" as="targetPoint" />
          </mxGeometry>
        </mxCell>
        <mxCell id="ytv9i6IObVo-lCA8z86A-153" style="edgeStyle=orthogonalEdgeStyle;rounded=0;orthogonalLoop=1;jettySize=auto;html=1;exitX=0.5;exitY=1;exitDx=0;exitDy=0;entryX=0.627;entryY=-0.002;entryDx=0;entryDy=0;entryPerimeter=0;dashed=1;" parent="ytv9i6IObVo-lCA8z86A-104" source="ytv9i6IObVo-lCA8z86A-146" target="ytv9i6IObVo-lCA8z86A-125" edge="1">
          <mxGeometry relative="1" as="geometry">
            <Array as="points">
              <mxPoint x="860" y="130" />
              <mxPoint x="590" y="130" />
            </Array>
          </mxGeometry>
        </mxCell>
        <mxCell id="ytv9i6IObVo-lCA8z86A-154" style="edgeStyle=orthogonalEdgeStyle;rounded=0;orthogonalLoop=1;jettySize=auto;html=1;exitX=1;exitY=0.5;exitDx=0;exitDy=0;entryX=0.37;entryY=0.007;entryDx=0;entryDy=0;entryPerimeter=0;dashed=1;" parent="ytv9i6IObVo-lCA8z86A-104" source="ytv9i6IObVo-lCA8z86A-123" target="ytv9i6IObVo-lCA8z86A-125" edge="1">
          <mxGeometry relative="1" as="geometry" />
        </mxCell>
        <mxCell id="67VtHt4RENRJBgxcd_Gk-142" style="edgeStyle=orthogonalEdgeStyle;rounded=0;orthogonalLoop=1;jettySize=auto;html=1;exitX=0.75;exitY=0;exitDx=0;exitDy=0;entryX=0.5;entryY=1;entryDx=0;entryDy=0;dashed=1;" parent="ytv9i6IObVo-lCA8z86A-104" source="ytv9i6IObVo-lCA8z86A-138" target="ytv9i6IObVo-lCA8z86A-141" edge="1">
          <mxGeometry relative="1" as="geometry">
            <Array as="points">
              <mxPoint x="600" y="260" />
              <mxPoint x="720" y="260" />
            </Array>
          </mxGeometry>
        </mxCell>
        <mxCell id="67VtHt4RENRJBgxcd_Gk-1" value="Confirmação do Pedido e Pagamento" style="swimlane;html=1;childLayout=stackLayout;resizeParent=1;resizeParentMax=0;horizontal=0;startSize=20;horizontalStack=0;" parent="1" vertex="1">
          <mxGeometry x="40" y="1000" width="1320" height="240" as="geometry" />
        </mxCell>
        <mxCell id="67VtHt4RENRJBgxcd_Gk-2" value="Cliente" style="swimlane;html=1;startSize=20;horizontal=0;" parent="67VtHt4RENRJBgxcd_Gk-1" vertex="1">
          <mxGeometry x="20" width="1300" height="120" as="geometry" />
        </mxCell>
        <mxCell id="67VtHt4RENRJBgxcd_Gk-3" value="" style="ellipse;whiteSpace=wrap;html=1;fillColor=#d5e8d4;strokeColor=#82b366;" parent="67VtHt4RENRJBgxcd_Gk-2" vertex="1">
          <mxGeometry x="140" y="40" width="40" height="40" as="geometry" />
        </mxCell>
        <mxCell id="67VtHt4RENRJBgxcd_Gk-5" value="&lt;span style=&quot;font-size: 10px;&quot;&gt;Confirma os itens do carrinho e prossegue para pagamento&lt;/span&gt;" style="rounded=1;whiteSpace=wrap;html=1;fontFamily=Helvetica;fontSize=12;align=center;strokeColor=#d79b00;fillColor=#ffe6cc;" parent="67VtHt4RENRJBgxcd_Gk-2" vertex="1">
          <mxGeometry x="220" y="30" width="80" height="60" as="geometry" />
        </mxCell>
        <mxCell id="67VtHt4RENRJBgxcd_Gk-6" style="edgeStyle=orthogonalEdgeStyle;rounded=0;orthogonalLoop=1;jettySize=auto;html=1;exitX=1;exitY=0.5;exitDx=0;exitDy=0;entryX=0;entryY=0.5;entryDx=0;entryDy=0;" parent="67VtHt4RENRJBgxcd_Gk-2" source="67VtHt4RENRJBgxcd_Gk-3" target="67VtHt4RENRJBgxcd_Gk-5" edge="1">
          <mxGeometry relative="1" as="geometry" />
        </mxCell>
        <mxCell id="67VtHt4RENRJBgxcd_Gk-20" value="&lt;span style=&quot;font-size: 10px;&quot;&gt;Insere dados de entrega (endereço e destinatário)&lt;/span&gt;" style="rounded=1;whiteSpace=wrap;html=1;fontFamily=Helvetica;fontSize=12;align=center;strokeColor=#d79b00;fillColor=#ffe6cc;" parent="67VtHt4RENRJBgxcd_Gk-2" vertex="1">
          <mxGeometry x="360" y="30" width="80" height="60" as="geometry" />
        </mxCell>
        <mxCell id="67VtHt4RENRJBgxcd_Gk-27" value="&lt;span style=&quot;font-size: 10px;&quot;&gt;Seleciona a transportadora de sua preferência&lt;/span&gt;" style="rounded=1;whiteSpace=wrap;html=1;fontFamily=Helvetica;fontSize=12;align=center;strokeColor=#d79b00;fillColor=#ffe6cc;" parent="67VtHt4RENRJBgxcd_Gk-2" vertex="1">
          <mxGeometry x="640" y="30" width="80" height="60" as="geometry" />
        </mxCell>
        <mxCell id="YSNVGP7_-eHgoIKVOlYn-4" style="edgeStyle=orthogonalEdgeStyle;rounded=0;orthogonalLoop=1;jettySize=auto;html=1;exitX=1;exitY=0.5;exitDx=0;exitDy=0;entryX=0;entryY=0.5;entryDx=0;entryDy=0;" edge="1" parent="67VtHt4RENRJBgxcd_Gk-2" source="67VtHt4RENRJBgxcd_Gk-41" target="YSNVGP7_-eHgoIKVOlYn-3">
          <mxGeometry relative="1" as="geometry" />
        </mxCell>
        <mxCell id="67VtHt4RENRJBgxcd_Gk-41" value="&lt;span style=&quot;font-size: 10px;&quot;&gt;Seleciona forma de pagamento&lt;/span&gt;" style="rounded=1;whiteSpace=wrap;html=1;fontFamily=Helvetica;fontSize=12;align=center;strokeColor=#d79b00;fillColor=#ffe6cc;" parent="67VtHt4RENRJBgxcd_Gk-2" vertex="1">
          <mxGeometry x="800" y="30" width="80" height="60" as="geometry" />
        </mxCell>
        <mxCell id="67VtHt4RENRJBgxcd_Gk-183" style="edgeStyle=orthogonalEdgeStyle;rounded=0;orthogonalLoop=1;jettySize=auto;html=1;exitX=1;exitY=0.5;exitDx=0;exitDy=0;entryX=0;entryY=0.5;entryDx=0;entryDy=0;" parent="67VtHt4RENRJBgxcd_Gk-2" source="67VtHt4RENRJBgxcd_Gk-181" target="67VtHt4RENRJBgxcd_Gk-182" edge="1">
          <mxGeometry relative="1" as="geometry" />
        </mxCell>
        <mxCell id="67VtHt4RENRJBgxcd_Gk-181" value="&lt;span style=&quot;font-size: 10px;&quot;&gt;Recebe confirmação do pedido&lt;/span&gt;" style="rounded=1;whiteSpace=wrap;html=1;fontFamily=Helvetica;fontSize=12;align=center;strokeColor=#d79b00;fillColor=#ffe6cc;" parent="67VtHt4RENRJBgxcd_Gk-2" vertex="1">
          <mxGeometry x="1080" y="30" width="80" height="60" as="geometry" />
        </mxCell>
        <mxCell id="67VtHt4RENRJBgxcd_Gk-182" value="" style="ellipse;whiteSpace=wrap;html=1;fillColor=#f8cecc;strokeColor=#b85450;" parent="67VtHt4RENRJBgxcd_Gk-2" vertex="1">
          <mxGeometry x="1210" y="40" width="40" height="40" as="geometry" />
        </mxCell>
        <mxCell id="YSNVGP7_-eHgoIKVOlYn-3" value="&lt;span style=&quot;font-size: 10px;&quot;&gt;Seleciona forma de pagamento&lt;/span&gt;" style="rounded=1;whiteSpace=wrap;html=1;fontFamily=Helvetica;fontSize=12;align=center;strokeColor=#d79b00;fillColor=#ffe6cc;" vertex="1" parent="67VtHt4RENRJBgxcd_Gk-2">
          <mxGeometry x="940" y="30" width="80" height="60" as="geometry" />
        </mxCell>
        <mxCell id="67VtHt4RENRJBgxcd_Gk-18" style="edgeStyle=orthogonalEdgeStyle;rounded=0;orthogonalLoop=1;jettySize=auto;html=1;exitX=1;exitY=0.5;exitDx=0;exitDy=0;entryX=0.5;entryY=1;entryDx=0;entryDy=0;dashed=1;" parent="67VtHt4RENRJBgxcd_Gk-1" source="67VtHt4RENRJBgxcd_Gk-11" target="67VtHt4RENRJBgxcd_Gk-5" edge="1">
          <mxGeometry relative="1" as="geometry" />
        </mxCell>
        <mxCell id="67VtHt4RENRJBgxcd_Gk-19" style="edgeStyle=orthogonalEdgeStyle;rounded=0;orthogonalLoop=1;jettySize=auto;html=1;exitX=1;exitY=0.5;exitDx=0;exitDy=0;entryX=0;entryY=0.5;entryDx=0;entryDy=0;dashed=1;" parent="67VtHt4RENRJBgxcd_Gk-1" source="67VtHt4RENRJBgxcd_Gk-5" target="67VtHt4RENRJBgxcd_Gk-15" edge="1">
          <mxGeometry relative="1" as="geometry" />
        </mxCell>
        <mxCell id="67VtHt4RENRJBgxcd_Gk-21" style="edgeStyle=orthogonalEdgeStyle;rounded=0;orthogonalLoop=1;jettySize=auto;html=1;exitX=0.5;exitY=0;exitDx=0;exitDy=0;entryX=0.5;entryY=1;entryDx=0;entryDy=0;dashed=1;" parent="67VtHt4RENRJBgxcd_Gk-1" source="67VtHt4RENRJBgxcd_Gk-15" target="67VtHt4RENRJBgxcd_Gk-20" edge="1">
          <mxGeometry relative="1" as="geometry" />
        </mxCell>
        <mxCell id="67VtHt4RENRJBgxcd_Gk-23" style="edgeStyle=orthogonalEdgeStyle;rounded=0;orthogonalLoop=1;jettySize=auto;html=1;exitX=1;exitY=0.5;exitDx=0;exitDy=0;entryX=0;entryY=0.5;entryDx=0;entryDy=0;dashed=1;" parent="67VtHt4RENRJBgxcd_Gk-1" source="67VtHt4RENRJBgxcd_Gk-20" target="67VtHt4RENRJBgxcd_Gk-22" edge="1">
          <mxGeometry relative="1" as="geometry" />
        </mxCell>
        <mxCell id="67VtHt4RENRJBgxcd_Gk-28" style="edgeStyle=orthogonalEdgeStyle;rounded=0;orthogonalLoop=1;jettySize=auto;html=1;exitX=0.5;exitY=0;exitDx=0;exitDy=0;entryX=0.5;entryY=1;entryDx=0;entryDy=0;dashed=1;" parent="67VtHt4RENRJBgxcd_Gk-1" source="67VtHt4RENRJBgxcd_Gk-25" target="67VtHt4RENRJBgxcd_Gk-27" edge="1">
          <mxGeometry relative="1" as="geometry" />
        </mxCell>
        <mxCell id="67VtHt4RENRJBgxcd_Gk-30" style="edgeStyle=orthogonalEdgeStyle;rounded=0;orthogonalLoop=1;jettySize=auto;html=1;exitX=1;exitY=0.5;exitDx=0;exitDy=0;entryX=0;entryY=0.5;entryDx=0;entryDy=0;dashed=1;" parent="67VtHt4RENRJBgxcd_Gk-1" source="67VtHt4RENRJBgxcd_Gk-27" target="67VtHt4RENRJBgxcd_Gk-29" edge="1">
          <mxGeometry relative="1" as="geometry" />
        </mxCell>
        <mxCell id="67VtHt4RENRJBgxcd_Gk-8" value="Peaches" style="swimlane;html=1;startSize=20;horizontal=0;" parent="67VtHt4RENRJBgxcd_Gk-1" vertex="1">
          <mxGeometry x="20" y="120" width="1300" height="120" as="geometry" />
        </mxCell>
        <mxCell id="67VtHt4RENRJBgxcd_Gk-9" style="edgeStyle=orthogonalEdgeStyle;rounded=0;orthogonalLoop=1;jettySize=auto;html=1;exitX=0.5;exitY=1;exitDx=0;exitDy=0;entryX=0.363;entryY=1.017;entryDx=0;entryDy=0;entryPerimeter=0;" parent="67VtHt4RENRJBgxcd_Gk-8" edge="1">
          <mxGeometry relative="1" as="geometry">
            <Array as="points">
              <mxPoint x="160" y="110" />
              <mxPoint x="529" y="110" />
            </Array>
            <mxPoint x="160" y="80" as="sourcePoint" />
          </mxGeometry>
        </mxCell>
        <mxCell id="67VtHt4RENRJBgxcd_Gk-10" style="edgeStyle=orthogonalEdgeStyle;rounded=0;orthogonalLoop=1;jettySize=auto;html=1;exitX=0.5;exitY=1;exitDx=0;exitDy=0;entryX=0.625;entryY=1.01;entryDx=0;entryDy=0;entryPerimeter=0;" parent="67VtHt4RENRJBgxcd_Gk-8" edge="1">
          <mxGeometry relative="1" as="geometry">
            <Array as="points">
              <mxPoint x="760" y="110" />
              <mxPoint x="550" y="110" />
            </Array>
            <mxPoint x="550" y="90.60000000000002" as="targetPoint" />
          </mxGeometry>
        </mxCell>
        <mxCell id="67VtHt4RENRJBgxcd_Gk-11" value="&lt;span style=&quot;font-size: 10px;&quot;&gt;Exibe o carrinho&lt;/span&gt;" style="rounded=1;whiteSpace=wrap;html=1;fontFamily=Helvetica;fontSize=12;align=center;strokeColor=#d79b00;fillColor=#ffe6cc;" parent="67VtHt4RENRJBgxcd_Gk-8" vertex="1">
          <mxGeometry x="140" y="30" width="80" height="60" as="geometry" />
        </mxCell>
        <mxCell id="67VtHt4RENRJBgxcd_Gk-12" style="edgeStyle=orthogonalEdgeStyle;rounded=0;orthogonalLoop=1;jettySize=auto;html=1;exitX=1;exitY=0.5;exitDx=0;exitDy=0;entryX=0;entryY=0.5;entryDx=0;entryDy=0;" parent="67VtHt4RENRJBgxcd_Gk-8" source="67VtHt4RENRJBgxcd_Gk-13" target="67VtHt4RENRJBgxcd_Gk-11" edge="1">
          <mxGeometry relative="1" as="geometry" />
        </mxCell>
        <mxCell id="67VtHt4RENRJBgxcd_Gk-13" value="" style="ellipse;whiteSpace=wrap;html=1;fillColor=#d5e8d4;strokeColor=#82b366;" parent="67VtHt4RENRJBgxcd_Gk-8" vertex="1">
          <mxGeometry x="60" y="40" width="40" height="40" as="geometry" />
        </mxCell>
        <mxCell id="67VtHt4RENRJBgxcd_Gk-15" value="&lt;span style=&quot;font-size: 10px;&quot;&gt;Solicita dados de entrega (endereço e destinatário)&lt;/span&gt;" style="rounded=1;whiteSpace=wrap;html=1;fontFamily=Helvetica;fontSize=12;align=center;strokeColor=#d79b00;fillColor=#ffe6cc;" parent="67VtHt4RENRJBgxcd_Gk-8" vertex="1">
          <mxGeometry x="360" y="30" width="80" height="60" as="geometry" />
        </mxCell>
        <mxCell id="67VtHt4RENRJBgxcd_Gk-26" style="edgeStyle=orthogonalEdgeStyle;rounded=0;orthogonalLoop=1;jettySize=auto;html=1;exitX=1;exitY=0.5;exitDx=0;exitDy=0;entryX=0;entryY=0.5;entryDx=0;entryDy=0;" parent="67VtHt4RENRJBgxcd_Gk-8" source="67VtHt4RENRJBgxcd_Gk-22" target="67VtHt4RENRJBgxcd_Gk-25" edge="1">
          <mxGeometry relative="1" as="geometry" />
        </mxCell>
        <mxCell id="67VtHt4RENRJBgxcd_Gk-22" value="&lt;span style=&quot;font-size: 10px;&quot;&gt;Calcula o frete&lt;/span&gt;&lt;div&gt;&lt;span style=&quot;font-size: 10px;&quot;&gt;nas transportadoras parceiras&lt;/span&gt;&lt;/div&gt;" style="rounded=1;whiteSpace=wrap;html=1;fontFamily=Helvetica;fontSize=12;align=center;strokeColor=#d79b00;fillColor=#ffe6cc;" parent="67VtHt4RENRJBgxcd_Gk-8" vertex="1">
          <mxGeometry x="500" y="30" width="80" height="60" as="geometry" />
        </mxCell>
        <mxCell id="67VtHt4RENRJBgxcd_Gk-25" value="&lt;span style=&quot;font-size: 10px;&quot;&gt;Exibe opções de transportadoras com os valores de frete&lt;/span&gt;" style="rounded=1;whiteSpace=wrap;html=1;fontFamily=Helvetica;fontSize=12;align=center;strokeColor=#d79b00;fillColor=#ffe6cc;" parent="67VtHt4RENRJBgxcd_Gk-8" vertex="1">
          <mxGeometry x="640" y="30" width="80" height="60" as="geometry" />
        </mxCell>
        <mxCell id="67VtHt4RENRJBgxcd_Gk-29" value="&lt;span style=&quot;font-size: 10px;&quot;&gt;Fornece opções de forma de pagamento&lt;/span&gt;" style="rounded=1;whiteSpace=wrap;html=1;fontFamily=Helvetica;fontSize=12;align=center;strokeColor=#d79b00;fillColor=#ffe6cc;" parent="67VtHt4RENRJBgxcd_Gk-8" vertex="1">
          <mxGeometry x="800" y="30" width="80" height="60" as="geometry" />
        </mxCell>
        <mxCell id="YSNVGP7_-eHgoIKVOlYn-6" style="edgeStyle=orthogonalEdgeStyle;rounded=0;orthogonalLoop=1;jettySize=auto;html=1;exitX=1;exitY=0.5;exitDx=0;exitDy=0;entryX=0;entryY=0.5;entryDx=0;entryDy=0;" edge="1" parent="67VtHt4RENRJBgxcd_Gk-8" source="67VtHt4RENRJBgxcd_Gk-35" target="67VtHt4RENRJBgxcd_Gk-52">
          <mxGeometry relative="1" as="geometry" />
        </mxCell>
        <mxCell id="67VtHt4RENRJBgxcd_Gk-35" value="&lt;span style=&quot;font-size: 10px;&quot;&gt;Realiza a transação&lt;/span&gt;" style="rounded=1;whiteSpace=wrap;html=1;fontFamily=Helvetica;fontSize=12;align=center;strokeColor=#d79b00;fillColor=#ffe6cc;" parent="67VtHt4RENRJBgxcd_Gk-8" vertex="1">
          <mxGeometry x="940" y="30" width="80" height="60" as="geometry" />
        </mxCell>
        <mxCell id="67VtHt4RENRJBgxcd_Gk-54" style="edgeStyle=orthogonalEdgeStyle;rounded=0;orthogonalLoop=1;jettySize=auto;html=1;exitX=1;exitY=0.5;exitDx=0;exitDy=0;" parent="67VtHt4RENRJBgxcd_Gk-8" source="67VtHt4RENRJBgxcd_Gk-52" edge="1">
          <mxGeometry relative="1" as="geometry">
            <mxPoint x="1220" y="60.14285714285711" as="targetPoint" />
          </mxGeometry>
        </mxCell>
        <mxCell id="67VtHt4RENRJBgxcd_Gk-52" value="&lt;span style=&quot;font-size: 10px;&quot;&gt;Confirma o pedido&lt;/span&gt;" style="rounded=1;whiteSpace=wrap;html=1;fontFamily=Helvetica;fontSize=12;align=center;strokeColor=#d79b00;fillColor=#ffe6cc;" parent="67VtHt4RENRJBgxcd_Gk-8" vertex="1">
          <mxGeometry x="1080" y="30" width="80" height="60" as="geometry" />
        </mxCell>
        <mxCell id="67VtHt4RENRJBgxcd_Gk-55" value="" style="ellipse;whiteSpace=wrap;html=1;fillColor=#f8cecc;strokeColor=#b85450;" parent="67VtHt4RENRJBgxcd_Gk-8" vertex="1">
          <mxGeometry x="1220" y="40" width="40" height="40" as="geometry" />
        </mxCell>
        <mxCell id="67VtHt4RENRJBgxcd_Gk-43" style="edgeStyle=orthogonalEdgeStyle;rounded=0;orthogonalLoop=1;jettySize=auto;html=1;exitX=0.5;exitY=0;exitDx=0;exitDy=0;entryX=0.5;entryY=1;entryDx=0;entryDy=0;dashed=1;" parent="67VtHt4RENRJBgxcd_Gk-1" source="67VtHt4RENRJBgxcd_Gk-29" target="67VtHt4RENRJBgxcd_Gk-41" edge="1">
          <mxGeometry relative="1" as="geometry" />
        </mxCell>
        <mxCell id="YSNVGP7_-eHgoIKVOlYn-5" style="edgeStyle=orthogonalEdgeStyle;rounded=0;orthogonalLoop=1;jettySize=auto;html=1;exitX=0.5;exitY=1;exitDx=0;exitDy=0;entryX=0.5;entryY=0;entryDx=0;entryDy=0;dashed=1;" edge="1" parent="67VtHt4RENRJBgxcd_Gk-1" source="YSNVGP7_-eHgoIKVOlYn-3" target="67VtHt4RENRJBgxcd_Gk-35">
          <mxGeometry relative="1" as="geometry" />
        </mxCell>
        <mxCell id="YSNVGP7_-eHgoIKVOlYn-7" style="edgeStyle=orthogonalEdgeStyle;rounded=0;orthogonalLoop=1;jettySize=auto;html=1;exitX=0.5;exitY=0;exitDx=0;exitDy=0;entryX=0.5;entryY=1;entryDx=0;entryDy=0;dashed=1;" edge="1" parent="67VtHt4RENRJBgxcd_Gk-1" source="67VtHt4RENRJBgxcd_Gk-52" target="67VtHt4RENRJBgxcd_Gk-181">
          <mxGeometry relative="1" as="geometry" />
        </mxCell>
        <mxCell id="67VtHt4RENRJBgxcd_Gk-56" value="Envio e Rastreamento do Pedido" style="swimlane;html=1;childLayout=stackLayout;resizeParent=1;resizeParentMax=0;horizontal=0;startSize=20;horizontalStack=0;" parent="1" vertex="1">
          <mxGeometry x="40" y="1280" width="920" height="360" as="geometry" />
        </mxCell>
        <mxCell id="67VtHt4RENRJBgxcd_Gk-57" value="Cliente" style="swimlane;html=1;startSize=20;horizontal=0;" parent="67VtHt4RENRJBgxcd_Gk-56" vertex="1">
          <mxGeometry x="20" width="900" height="120" as="geometry" />
        </mxCell>
        <mxCell id="67VtHt4RENRJBgxcd_Gk-110" value="&lt;span style=&quot;font-size: 10px;&quot;&gt;Visualiza informações de rastreamento&lt;/span&gt;" style="rounded=1;whiteSpace=wrap;html=1;fontFamily=Helvetica;fontSize=12;align=center;strokeColor=#d79b00;fillColor=#ffe6cc;" parent="67VtHt4RENRJBgxcd_Gk-57" vertex="1">
          <mxGeometry x="420" y="30" width="80" height="60" as="geometry" />
        </mxCell>
        <mxCell id="67VtHt4RENRJBgxcd_Gk-123" style="edgeStyle=orthogonalEdgeStyle;rounded=0;orthogonalLoop=1;jettySize=auto;html=1;exitX=1;exitY=0.5;exitDx=0;exitDy=0;entryX=0;entryY=0.5;entryDx=0;entryDy=0;" parent="67VtHt4RENRJBgxcd_Gk-57" source="67VtHt4RENRJBgxcd_Gk-117" target="67VtHt4RENRJBgxcd_Gk-121" edge="1">
          <mxGeometry relative="1" as="geometry" />
        </mxCell>
        <mxCell id="67VtHt4RENRJBgxcd_Gk-117" value="&lt;span style=&quot;font-size: 10px;&quot;&gt;Recebe o pedido da transportadora&lt;/span&gt;" style="rounded=1;whiteSpace=wrap;html=1;fontFamily=Helvetica;fontSize=12;align=center;strokeColor=#d79b00;fillColor=#ffe6cc;" parent="67VtHt4RENRJBgxcd_Gk-57" vertex="1">
          <mxGeometry x="560" y="30" width="80" height="60" as="geometry" />
        </mxCell>
        <mxCell id="67VtHt4RENRJBgxcd_Gk-120" style="edgeStyle=orthogonalEdgeStyle;rounded=0;orthogonalLoop=1;jettySize=auto;html=1;exitX=1;exitY=0.5;exitDx=0;exitDy=0;entryX=0;entryY=0.5;entryDx=0;entryDy=0;" parent="67VtHt4RENRJBgxcd_Gk-57" source="67VtHt4RENRJBgxcd_Gk-119" target="67VtHt4RENRJBgxcd_Gk-110" edge="1">
          <mxGeometry relative="1" as="geometry" />
        </mxCell>
        <mxCell id="67VtHt4RENRJBgxcd_Gk-119" value="" style="ellipse;whiteSpace=wrap;html=1;fillColor=#d5e8d4;strokeColor=#82b366;" parent="67VtHt4RENRJBgxcd_Gk-57" vertex="1">
          <mxGeometry x="340" y="40" width="40" height="40" as="geometry" />
        </mxCell>
        <mxCell id="67VtHt4RENRJBgxcd_Gk-121" value="" style="ellipse;whiteSpace=wrap;html=1;fillColor=#f8cecc;strokeColor=#b85450;" parent="67VtHt4RENRJBgxcd_Gk-57" vertex="1">
          <mxGeometry x="680" y="40" width="40" height="40" as="geometry" />
        </mxCell>
        <mxCell id="67VtHt4RENRJBgxcd_Gk-70" value="Peaches" style="swimlane;html=1;startSize=20;horizontal=0;" parent="67VtHt4RENRJBgxcd_Gk-56" vertex="1">
          <mxGeometry x="20" y="120" width="900" height="120" as="geometry" />
        </mxCell>
        <mxCell id="67VtHt4RENRJBgxcd_Gk-71" style="edgeStyle=orthogonalEdgeStyle;rounded=0;orthogonalLoop=1;jettySize=auto;html=1;exitX=0.5;exitY=1;exitDx=0;exitDy=0;entryX=0.363;entryY=1.017;entryDx=0;entryDy=0;entryPerimeter=0;" parent="67VtHt4RENRJBgxcd_Gk-70" edge="1">
          <mxGeometry relative="1" as="geometry">
            <Array as="points">
              <mxPoint x="160" y="110" />
              <mxPoint x="529" y="110" />
            </Array>
            <mxPoint x="160" y="80" as="sourcePoint" />
          </mxGeometry>
        </mxCell>
        <mxCell id="67VtHt4RENRJBgxcd_Gk-72" style="edgeStyle=orthogonalEdgeStyle;rounded=0;orthogonalLoop=1;jettySize=auto;html=1;exitX=0.5;exitY=1;exitDx=0;exitDy=0;entryX=0.625;entryY=1.01;entryDx=0;entryDy=0;entryPerimeter=0;" parent="67VtHt4RENRJBgxcd_Gk-70" edge="1">
          <mxGeometry relative="1" as="geometry">
            <Array as="points">
              <mxPoint x="760" y="110" />
              <mxPoint x="550" y="110" />
            </Array>
            <mxPoint x="550" y="90.60000000000002" as="targetPoint" />
          </mxGeometry>
        </mxCell>
        <mxCell id="67VtHt4RENRJBgxcd_Gk-101" style="edgeStyle=orthogonalEdgeStyle;rounded=0;orthogonalLoop=1;jettySize=auto;html=1;exitX=1;exitY=0.5;exitDx=0;exitDy=0;entryX=0;entryY=0.5;entryDx=0;entryDy=0;" parent="67VtHt4RENRJBgxcd_Gk-70" source="67VtHt4RENRJBgxcd_Gk-73" target="67VtHt4RENRJBgxcd_Gk-100" edge="1">
          <mxGeometry relative="1" as="geometry" />
        </mxCell>
        <mxCell id="67VtHt4RENRJBgxcd_Gk-73" value="&lt;span style=&quot;font-size: 10px;&quot;&gt;Confecciona o produto&lt;/span&gt;" style="rounded=1;whiteSpace=wrap;html=1;fontFamily=Helvetica;fontSize=12;align=center;strokeColor=#d79b00;fillColor=#ffe6cc;" parent="67VtHt4RENRJBgxcd_Gk-70" vertex="1">
          <mxGeometry x="140" y="30" width="80" height="60" as="geometry" />
        </mxCell>
        <mxCell id="67VtHt4RENRJBgxcd_Gk-74" style="edgeStyle=orthogonalEdgeStyle;rounded=0;orthogonalLoop=1;jettySize=auto;html=1;exitX=1;exitY=0.5;exitDx=0;exitDy=0;entryX=0;entryY=0.5;entryDx=0;entryDy=0;" parent="67VtHt4RENRJBgxcd_Gk-70" source="67VtHt4RENRJBgxcd_Gk-75" target="67VtHt4RENRJBgxcd_Gk-73" edge="1">
          <mxGeometry relative="1" as="geometry" />
        </mxCell>
        <mxCell id="67VtHt4RENRJBgxcd_Gk-75" value="" style="ellipse;whiteSpace=wrap;html=1;fillColor=#d5e8d4;strokeColor=#82b366;" parent="67VtHt4RENRJBgxcd_Gk-70" vertex="1">
          <mxGeometry x="60" y="40" width="40" height="40" as="geometry" />
        </mxCell>
        <mxCell id="67VtHt4RENRJBgxcd_Gk-100" value="&lt;span style=&quot;font-size: 10px;&quot;&gt;Realiza a postagem na transportadora escolhida&lt;/span&gt;" style="rounded=1;whiteSpace=wrap;html=1;fontFamily=Helvetica;fontSize=12;align=center;strokeColor=#d79b00;fillColor=#ffe6cc;" parent="67VtHt4RENRJBgxcd_Gk-70" vertex="1">
          <mxGeometry x="280" y="30" width="80" height="60" as="geometry" />
        </mxCell>
        <mxCell id="67VtHt4RENRJBgxcd_Gk-108" value="&lt;span style=&quot;font-size: 10px;&quot;&gt;Exibe informações de rastreamento&lt;/span&gt;" style="rounded=1;whiteSpace=wrap;html=1;fontFamily=Helvetica;fontSize=12;align=center;strokeColor=#d79b00;fillColor=#ffe6cc;" parent="67VtHt4RENRJBgxcd_Gk-70" vertex="1">
          <mxGeometry x="420" y="30" width="80" height="60" as="geometry" />
        </mxCell>
        <mxCell id="67VtHt4RENRJBgxcd_Gk-130" style="edgeStyle=orthogonalEdgeStyle;rounded=0;orthogonalLoop=1;jettySize=auto;html=1;exitX=1;exitY=0.5;exitDx=0;exitDy=0;entryX=0;entryY=0.5;entryDx=0;entryDy=0;" parent="67VtHt4RENRJBgxcd_Gk-70" source="67VtHt4RENRJBgxcd_Gk-124" target="67VtHt4RENRJBgxcd_Gk-128" edge="1">
          <mxGeometry relative="1" as="geometry" />
        </mxCell>
        <mxCell id="67VtHt4RENRJBgxcd_Gk-124" value="&lt;span style=&quot;font-size: 10px;&quot;&gt;Declara pedido como entregue&lt;/span&gt;" style="rounded=1;whiteSpace=wrap;html=1;fontFamily=Helvetica;fontSize=12;align=center;strokeColor=#d79b00;fillColor=#ffe6cc;" parent="67VtHt4RENRJBgxcd_Gk-70" vertex="1">
          <mxGeometry x="700" y="30" width="80" height="60" as="geometry" />
        </mxCell>
        <mxCell id="67VtHt4RENRJBgxcd_Gk-128" value="" style="ellipse;whiteSpace=wrap;html=1;fillColor=#f8cecc;strokeColor=#b85450;" parent="67VtHt4RENRJBgxcd_Gk-70" vertex="1">
          <mxGeometry x="820" y="40" width="40" height="40" as="geometry" />
        </mxCell>
        <mxCell id="67VtHt4RENRJBgxcd_Gk-90" value="S" style="swimlane;html=1;startSize=20;horizontal=0;" parent="67VtHt4RENRJBgxcd_Gk-56" vertex="1">
          <mxGeometry x="20" y="240" width="900" height="120" as="geometry" />
        </mxCell>
        <mxCell id="67VtHt4RENRJBgxcd_Gk-107" style="edgeStyle=orthogonalEdgeStyle;rounded=0;orthogonalLoop=1;jettySize=auto;html=1;exitX=1;exitY=0.5;exitDx=0;exitDy=0;entryX=0;entryY=0.5;entryDx=0;entryDy=0;" parent="67VtHt4RENRJBgxcd_Gk-90" source="67VtHt4RENRJBgxcd_Gk-102" target="67VtHt4RENRJBgxcd_Gk-106" edge="1">
          <mxGeometry relative="1" as="geometry" />
        </mxCell>
        <mxCell id="67VtHt4RENRJBgxcd_Gk-102" value="&lt;span style=&quot;font-size: 10px;&quot;&gt;Recebe o produto e o endereço do destinatário&lt;/span&gt;" style="rounded=1;whiteSpace=wrap;html=1;fontFamily=Helvetica;fontSize=12;align=center;strokeColor=#d79b00;fillColor=#ffe6cc;" parent="67VtHt4RENRJBgxcd_Gk-90" vertex="1">
          <mxGeometry x="280" y="30" width="80" height="60" as="geometry" />
        </mxCell>
        <mxCell id="67VtHt4RENRJBgxcd_Gk-105" style="edgeStyle=orthogonalEdgeStyle;rounded=0;orthogonalLoop=1;jettySize=auto;html=1;exitX=1;exitY=0.5;exitDx=0;exitDy=0;entryX=0;entryY=0.5;entryDx=0;entryDy=0;" parent="67VtHt4RENRJBgxcd_Gk-90" source="67VtHt4RENRJBgxcd_Gk-104" target="67VtHt4RENRJBgxcd_Gk-102" edge="1">
          <mxGeometry relative="1" as="geometry" />
        </mxCell>
        <mxCell id="67VtHt4RENRJBgxcd_Gk-104" value="" style="ellipse;whiteSpace=wrap;html=1;fillColor=#d5e8d4;strokeColor=#82b366;" parent="67VtHt4RENRJBgxcd_Gk-90" vertex="1">
          <mxGeometry x="200" y="40" width="40" height="40" as="geometry" />
        </mxCell>
        <mxCell id="67VtHt4RENRJBgxcd_Gk-116" style="edgeStyle=orthogonalEdgeStyle;rounded=0;orthogonalLoop=1;jettySize=auto;html=1;exitX=1;exitY=0.5;exitDx=0;exitDy=0;entryX=0;entryY=0.5;entryDx=0;entryDy=0;" parent="67VtHt4RENRJBgxcd_Gk-90" source="67VtHt4RENRJBgxcd_Gk-106" target="67VtHt4RENRJBgxcd_Gk-115" edge="1">
          <mxGeometry relative="1" as="geometry" />
        </mxCell>
        <mxCell id="67VtHt4RENRJBgxcd_Gk-106" value="&lt;span style=&quot;font-size: 10px;&quot;&gt;Fornece informações de rastreamento&lt;/span&gt;" style="rounded=1;whiteSpace=wrap;html=1;fontFamily=Helvetica;fontSize=12;align=center;strokeColor=#d79b00;fillColor=#ffe6cc;" parent="67VtHt4RENRJBgxcd_Gk-90" vertex="1">
          <mxGeometry x="420" y="30" width="80" height="60" as="geometry" />
        </mxCell>
        <mxCell id="67VtHt4RENRJBgxcd_Gk-126" style="edgeStyle=orthogonalEdgeStyle;rounded=0;orthogonalLoop=1;jettySize=auto;html=1;exitX=1;exitY=0.5;exitDx=0;exitDy=0;entryX=0;entryY=0.5;entryDx=0;entryDy=0;" parent="67VtHt4RENRJBgxcd_Gk-90" source="67VtHt4RENRJBgxcd_Gk-115" target="67VtHt4RENRJBgxcd_Gk-125" edge="1">
          <mxGeometry relative="1" as="geometry" />
        </mxCell>
        <mxCell id="67VtHt4RENRJBgxcd_Gk-115" value="&lt;span style=&quot;font-size: 10px;&quot;&gt;Entrega o pedido no endereço do destinatário&lt;/span&gt;" style="rounded=1;whiteSpace=wrap;html=1;fontFamily=Helvetica;fontSize=12;align=center;strokeColor=#d79b00;fillColor=#ffe6cc;" parent="67VtHt4RENRJBgxcd_Gk-90" vertex="1">
          <mxGeometry x="560" y="30" width="80" height="60" as="geometry" />
        </mxCell>
        <mxCell id="67VtHt4RENRJBgxcd_Gk-131" style="edgeStyle=orthogonalEdgeStyle;rounded=0;orthogonalLoop=1;jettySize=auto;html=1;exitX=1;exitY=0.5;exitDx=0;exitDy=0;entryX=0;entryY=0.5;entryDx=0;entryDy=0;" parent="67VtHt4RENRJBgxcd_Gk-90" source="67VtHt4RENRJBgxcd_Gk-125" target="67VtHt4RENRJBgxcd_Gk-129" edge="1">
          <mxGeometry relative="1" as="geometry" />
        </mxCell>
        <mxCell id="67VtHt4RENRJBgxcd_Gk-125" value="&lt;span style=&quot;font-size: 10px;&quot;&gt;Notifica que o produto foi entregue&lt;/span&gt;" style="rounded=1;whiteSpace=wrap;html=1;fontFamily=Helvetica;fontSize=12;align=center;strokeColor=#d79b00;fillColor=#ffe6cc;" parent="67VtHt4RENRJBgxcd_Gk-90" vertex="1">
          <mxGeometry x="700" y="30" width="80" height="60" as="geometry" />
        </mxCell>
        <mxCell id="67VtHt4RENRJBgxcd_Gk-129" value="" style="ellipse;whiteSpace=wrap;html=1;fillColor=#f8cecc;strokeColor=#b85450;" parent="67VtHt4RENRJBgxcd_Gk-90" vertex="1">
          <mxGeometry x="820" y="40" width="40" height="40" as="geometry" />
        </mxCell>
        <mxCell id="67VtHt4RENRJBgxcd_Gk-103" style="edgeStyle=orthogonalEdgeStyle;rounded=0;orthogonalLoop=1;jettySize=auto;html=1;exitX=0.5;exitY=1;exitDx=0;exitDy=0;entryX=0.5;entryY=0;entryDx=0;entryDy=0;dashed=1;" parent="67VtHt4RENRJBgxcd_Gk-56" source="67VtHt4RENRJBgxcd_Gk-100" target="67VtHt4RENRJBgxcd_Gk-102" edge="1">
          <mxGeometry relative="1" as="geometry" />
        </mxCell>
        <mxCell id="67VtHt4RENRJBgxcd_Gk-109" style="edgeStyle=orthogonalEdgeStyle;rounded=0;orthogonalLoop=1;jettySize=auto;html=1;exitX=0.5;exitY=0;exitDx=0;exitDy=0;entryX=0.5;entryY=1;entryDx=0;entryDy=0;dashed=1;" parent="67VtHt4RENRJBgxcd_Gk-56" source="67VtHt4RENRJBgxcd_Gk-106" target="67VtHt4RENRJBgxcd_Gk-108" edge="1">
          <mxGeometry relative="1" as="geometry" />
        </mxCell>
        <mxCell id="67VtHt4RENRJBgxcd_Gk-111" style="edgeStyle=orthogonalEdgeStyle;rounded=0;orthogonalLoop=1;jettySize=auto;html=1;exitX=0.5;exitY=0;exitDx=0;exitDy=0;entryX=0.5;entryY=1;entryDx=0;entryDy=0;dashed=1;" parent="67VtHt4RENRJBgxcd_Gk-56" source="67VtHt4RENRJBgxcd_Gk-108" target="67VtHt4RENRJBgxcd_Gk-110" edge="1">
          <mxGeometry relative="1" as="geometry" />
        </mxCell>
        <mxCell id="67VtHt4RENRJBgxcd_Gk-118" style="edgeStyle=orthogonalEdgeStyle;rounded=0;orthogonalLoop=1;jettySize=auto;html=1;exitX=0.5;exitY=0;exitDx=0;exitDy=0;entryX=0.5;entryY=1;entryDx=0;entryDy=0;dashed=1;" parent="67VtHt4RENRJBgxcd_Gk-56" source="67VtHt4RENRJBgxcd_Gk-115" target="67VtHt4RENRJBgxcd_Gk-117" edge="1">
          <mxGeometry relative="1" as="geometry" />
        </mxCell>
        <mxCell id="67VtHt4RENRJBgxcd_Gk-127" style="edgeStyle=orthogonalEdgeStyle;rounded=0;orthogonalLoop=1;jettySize=auto;html=1;exitX=0.5;exitY=0;exitDx=0;exitDy=0;entryX=0.5;entryY=1;entryDx=0;entryDy=0;dashed=1;" parent="67VtHt4RENRJBgxcd_Gk-56" source="67VtHt4RENRJBgxcd_Gk-125" target="67VtHt4RENRJBgxcd_Gk-124" edge="1">
          <mxGeometry relative="1" as="geometry" />
        </mxCell>
        <mxCell id="67VtHt4RENRJBgxcd_Gk-152" value="Avaliação do Produto" style="swimlane;html=1;childLayout=stackLayout;resizeParent=1;resizeParentMax=0;horizontal=0;startSize=20;horizontalStack=0;" parent="1" vertex="1">
          <mxGeometry x="40" y="1680" width="500" height="240" as="geometry" />
        </mxCell>
        <mxCell id="67VtHt4RENRJBgxcd_Gk-153" value="Cliente" style="swimlane;html=1;startSize=20;horizontal=0;" parent="67VtHt4RENRJBgxcd_Gk-152" vertex="1">
          <mxGeometry x="20" width="480" height="120" as="geometry" />
        </mxCell>
        <mxCell id="67VtHt4RENRJBgxcd_Gk-154" value="" style="ellipse;whiteSpace=wrap;html=1;fillColor=#d5e8d4;strokeColor=#82b366;" parent="67VtHt4RENRJBgxcd_Gk-153" vertex="1">
          <mxGeometry x="60" y="40" width="40" height="40" as="geometry" />
        </mxCell>
        <mxCell id="67VtHt4RENRJBgxcd_Gk-177" style="edgeStyle=orthogonalEdgeStyle;rounded=0;orthogonalLoop=1;jettySize=auto;html=1;exitX=1;exitY=0.5;exitDx=0;exitDy=0;entryX=0;entryY=0.5;entryDx=0;entryDy=0;" parent="67VtHt4RENRJBgxcd_Gk-153" source="67VtHt4RENRJBgxcd_Gk-157" target="67VtHt4RENRJBgxcd_Gk-176" edge="1">
          <mxGeometry relative="1" as="geometry" />
        </mxCell>
        <mxCell id="67VtHt4RENRJBgxcd_Gk-157" value="&lt;span style=&quot;font-size: 10px;&quot;&gt;Escreve uma avaliação na página do produto&lt;/span&gt;" style="rounded=1;whiteSpace=wrap;html=1;fontFamily=Helvetica;fontSize=12;align=center;strokeColor=#d79b00;fillColor=#ffe6cc;" parent="67VtHt4RENRJBgxcd_Gk-153" vertex="1">
          <mxGeometry x="140" y="30" width="80" height="60" as="geometry" />
        </mxCell>
        <mxCell id="67VtHt4RENRJBgxcd_Gk-158" style="edgeStyle=orthogonalEdgeStyle;rounded=0;orthogonalLoop=1;jettySize=auto;html=1;exitX=1;exitY=0.5;exitDx=0;exitDy=0;entryX=0;entryY=0.5;entryDx=0;entryDy=0;" parent="67VtHt4RENRJBgxcd_Gk-153" source="67VtHt4RENRJBgxcd_Gk-154" target="67VtHt4RENRJBgxcd_Gk-157" edge="1">
          <mxGeometry relative="1" as="geometry" />
        </mxCell>
        <mxCell id="67VtHt4RENRJBgxcd_Gk-176" value="" style="ellipse;whiteSpace=wrap;html=1;fillColor=#f8cecc;strokeColor=#b85450;" parent="67VtHt4RENRJBgxcd_Gk-153" vertex="1">
          <mxGeometry x="260" y="40" width="40" height="40" as="geometry" />
        </mxCell>
        <mxCell id="67VtHt4RENRJBgxcd_Gk-161" value="Peaches" style="swimlane;html=1;startSize=20;horizontal=0;" parent="67VtHt4RENRJBgxcd_Gk-152" vertex="1">
          <mxGeometry x="20" y="120" width="480" height="120" as="geometry" />
        </mxCell>
        <mxCell id="67VtHt4RENRJBgxcd_Gk-162" style="edgeStyle=orthogonalEdgeStyle;rounded=0;orthogonalLoop=1;jettySize=auto;html=1;exitX=0.5;exitY=1;exitDx=0;exitDy=0;entryX=0.363;entryY=1.017;entryDx=0;entryDy=0;entryPerimeter=0;" parent="67VtHt4RENRJBgxcd_Gk-161" edge="1">
          <mxGeometry relative="1" as="geometry">
            <Array as="points">
              <mxPoint x="160" y="110" />
              <mxPoint x="529" y="110" />
            </Array>
            <mxPoint x="160" y="80" as="sourcePoint" />
          </mxGeometry>
        </mxCell>
        <mxCell id="67VtHt4RENRJBgxcd_Gk-163" style="edgeStyle=orthogonalEdgeStyle;rounded=0;orthogonalLoop=1;jettySize=auto;html=1;exitX=0.5;exitY=1;exitDx=0;exitDy=0;entryX=0.625;entryY=1.01;entryDx=0;entryDy=0;entryPerimeter=0;" parent="67VtHt4RENRJBgxcd_Gk-161" edge="1">
          <mxGeometry relative="1" as="geometry">
            <Array as="points">
              <mxPoint x="760" y="110" />
              <mxPoint x="550" y="110" />
            </Array>
            <mxPoint x="550" y="90.60000000000002" as="targetPoint" />
          </mxGeometry>
        </mxCell>
        <mxCell id="67VtHt4RENRJBgxcd_Gk-164" value="&lt;span style=&quot;font-size: 10px;&quot;&gt;Solicita avaliação do produto&lt;/span&gt;" style="rounded=1;whiteSpace=wrap;html=1;fontFamily=Helvetica;fontSize=12;align=center;strokeColor=#d79b00;fillColor=#ffe6cc;" parent="67VtHt4RENRJBgxcd_Gk-161" vertex="1">
          <mxGeometry x="140" y="30" width="80" height="60" as="geometry" />
        </mxCell>
        <mxCell id="67VtHt4RENRJBgxcd_Gk-165" style="edgeStyle=orthogonalEdgeStyle;rounded=0;orthogonalLoop=1;jettySize=auto;html=1;exitX=1;exitY=0.5;exitDx=0;exitDy=0;entryX=0;entryY=0.5;entryDx=0;entryDy=0;" parent="67VtHt4RENRJBgxcd_Gk-161" source="67VtHt4RENRJBgxcd_Gk-166" target="67VtHt4RENRJBgxcd_Gk-164" edge="1">
          <mxGeometry relative="1" as="geometry" />
        </mxCell>
        <mxCell id="67VtHt4RENRJBgxcd_Gk-166" value="" style="ellipse;whiteSpace=wrap;html=1;fillColor=#d5e8d4;strokeColor=#82b366;" parent="67VtHt4RENRJBgxcd_Gk-161" vertex="1">
          <mxGeometry x="60" y="40" width="40" height="40" as="geometry" />
        </mxCell>
        <mxCell id="67VtHt4RENRJBgxcd_Gk-178" style="edgeStyle=orthogonalEdgeStyle;rounded=0;orthogonalLoop=1;jettySize=auto;html=1;exitX=1;exitY=0.5;exitDx=0;exitDy=0;entryX=0;entryY=0.5;entryDx=0;entryDy=0;" parent="67VtHt4RENRJBgxcd_Gk-161" source="67VtHt4RENRJBgxcd_Gk-173" target="67VtHt4RENRJBgxcd_Gk-175" edge="1">
          <mxGeometry relative="1" as="geometry" />
        </mxCell>
        <mxCell id="67VtHt4RENRJBgxcd_Gk-173" value="&lt;span style=&quot;font-size: 10px;&quot;&gt;Exibe avaliação na página do produto&lt;/span&gt;" style="rounded=1;whiteSpace=wrap;html=1;fontFamily=Helvetica;fontSize=12;align=center;strokeColor=#d79b00;fillColor=#ffe6cc;" parent="67VtHt4RENRJBgxcd_Gk-161" vertex="1">
          <mxGeometry x="280" y="30" width="80" height="60" as="geometry" />
        </mxCell>
        <mxCell id="67VtHt4RENRJBgxcd_Gk-175" value="" style="ellipse;whiteSpace=wrap;html=1;fillColor=#f8cecc;strokeColor=#b85450;" parent="67VtHt4RENRJBgxcd_Gk-161" vertex="1">
          <mxGeometry x="400" y="40" width="40" height="40" as="geometry" />
        </mxCell>
        <mxCell id="67VtHt4RENRJBgxcd_Gk-172" style="edgeStyle=orthogonalEdgeStyle;rounded=0;orthogonalLoop=1;jettySize=auto;html=1;exitX=0.5;exitY=0;exitDx=0;exitDy=0;entryX=0.5;entryY=1;entryDx=0;entryDy=0;dashed=1;" parent="67VtHt4RENRJBgxcd_Gk-152" source="67VtHt4RENRJBgxcd_Gk-164" target="67VtHt4RENRJBgxcd_Gk-157" edge="1">
          <mxGeometry relative="1" as="geometry" />
        </mxCell>
        <mxCell id="67VtHt4RENRJBgxcd_Gk-174" style="edgeStyle=orthogonalEdgeStyle;rounded=0;orthogonalLoop=1;jettySize=auto;html=1;exitX=0.75;exitY=1;exitDx=0;exitDy=0;entryX=0.5;entryY=0;entryDx=0;entryDy=0;dashed=1;" parent="67VtHt4RENRJBgxcd_Gk-152" source="67VtHt4RENRJBgxcd_Gk-157" target="67VtHt4RENRJBgxcd_Gk-173" edge="1">
          <mxGeometry relative="1" as="geometry">
            <Array as="points">
              <mxPoint x="220" y="100" />
              <mxPoint x="340" y="100" />
            </Array>
          </mxGeometry>
        </mxCell>
      </root>
    </mxGraphModel>
  </diagram>
</mxfile>
